<svg width="1280pt" height="640pt" viewBox="0 0 1280 640" xmlns="http://www.w3.org/2000/svg"><path fill="#FFF" d="M0 0h1280v640H0z"/><path fill="#231815" d="M66.977 407.063a.573.573 0 0 1-.641-.45c-2.152-10.297-3.844-20.722-4.84-31.254-.656-7.87-1.055-15.918-.887-23.816.13-2.652-.113-5.328.036-7.98 1.105-13.235 3.363-26.395 6.628-39.262 1.95-7.43 4.29-15.742 7.094-22.903 16.25-39.535 45.817-71.804 76.504-100.753a683.093 683.093 0 0 1 7.117-6.711c-24.277 16.086-46.664 35.02-65.148 57.609-5.54 6.652-10.746 13.555-15.445 20.836-7.043 10.879-13.68 22.152-18.403 34.25-1.527 4.023-2.902 8.16-3.332 12.422a.456.456 0 0 1-.496.41.456.456 0 0 1-.402-.48c.754-8.813 4.41-16.985 8.062-24.903 3.781-7.879 8.067-15.496 12.703-22.898 22.66-36.121 55.653-64.836 92.383-86.055 4.293-3.621 8.723-7.09 13.38-10.258 6.597-4.5 13.425-8.605 20.3-12.699 18.32-10.79 37.844-19.855 58.328-25.762a208.466 208.466 0 0 1 24.836-5.613c-12.266.95-24.555 2.605-36.3 5.344-65.423 14.672-130.798 48.433-167.84 106.074-3.301 5.215-6.27 10.613-9.188 16.062a.387.387 0 0 1-.535.172.386.386 0 0 1-.164-.496c34.613-77.355 133.355-122.433 214.218-128.886 7.14-.508 14.317-.723 21.473-.532.23-.011.46-.03.691-.043 5.332.082 10.633.14 15.946.41 15.882.622 31.718 3.297 46.66 8.75a118.468 118.468 0 0 1 14.523 6.368.821.821 0 1 1-.761 1.453c-19.32-9.754-41.305-13.715-62.903-12.836a2.324 2.324 0 0 1-.55.398c-62.352 31.465-126.688 100.524-153.926 164.864-4.16 10.058-7.618 20.421-9.817 31.125a1.147 1.147 0 0 1-1.355.906 1.155 1.155 0 0 1-.91-1.254c8.203-68.004 79.91-145.871 135.34-182.793 6.82-4.508 13.847-8.734 21.14-12.484-1.012.113-2.023.218-3.031.347-36.27 3.266-70.633 16.64-101.5 35.766-6.602 4.043-13.238 8.144-19.594 12.594a916.108 916.108 0 0 0-9.719 7.324c-40.047 43.953-66.597 101.851-62.113 162.09a.71.71 0 0 1-.668.746.709.709 0 0 1-.734-.586c-7.95-54.074 14.238-107.496 47.847-149.828a354.468 354.468 0 0 0-5.113 4.3c-30.094 27.48-59.965 59.497-75.824 97.489-3.219 8.207-5.852 17.375-7.977 25.922-3.547 13.836-5.125 28.07-6.73 42.21-.692 7.739-.832 15.645-.711 23.41.262 10.45 1.242 20.883 2.828 31.231a.57.57 0 0 1-.48.652m11.41 12.7a4.8 4.8 0 0 1-.114-.211c3.961-15.14 11.196-33.04 24.848-49.489 10.219-12.316 27.379-27.851 97.156-52.253 84.157-29.43 91.282-19.637 115.582-39.215 24.77-19.953 49.536-66.047 54.352-97.008 3.11-19.984 12.125-35.828 18.68-46.223 13.562 8.586 26.273 18.739 37.898 30.364 13.211 13.21 24.508 27.82 33.774 43.492.757-3.074 1.503-6.145 2.265-9.2.742-3.058 2.45-10.18 3.945-16.367a240.014 240.014 0 0 0-26.476-31.43c-44.817-44.816-104.402-69.495-167.781-69.495-63.375 0-122.961 24.68-167.778 69.496C59.926 197.035 35.246 256.62 35.246 320c0 45.14 12.531 88.352 35.93 125.68 1.734-8.606 4.094-17.582 7.21-25.918"/><path fill="#231815" d="M296.582 523.863c65.422-14.672 130.797-48.433 167.84-106.074 3.3-5.219 6.27-10.613 9.187-16.062a.387.387 0 0 1 .536-.172.387.387 0 0 1 .164.496c-34.614 77.355-133.36 122.433-214.22 128.887-7.14.507-14.316.722-21.472.53-.23.012-.46.032-.691.044-5.332-.082-10.633-.14-15.946-.41-15.882-.621-31.718-3.297-46.66-8.75a118.134 118.134 0 0 1-14.523-6.368.82.82 0 1 1 .762-1.453c19.32 9.754 41.304 13.715 62.902 12.836a2.33 2.33 0 0 1 .55-.398C287.36 495.5 351.7 426.445 378.935 362.106c4.164-10.06 7.62-20.422 9.82-31.125a1.147 1.147 0 0 1 1.355-.907c.586.121.973.672.91 1.254-8.206 68.004-79.91 145.871-135.343 182.793-6.817 4.504-13.844 8.735-21.14 12.485 1.01-.114 2.027-.22 3.03-.352 36.274-3.266 70.637-16.637 101.504-35.762 6.602-4.043 13.239-8.144 19.594-12.594a972.073 972.073 0 0 0 9.719-7.324c40.047-43.953 66.597-101.851 62.113-162.093a.71.71 0 0 1 .668-.743c.36-.02.676.239.734.586 7.95 54.074-14.238 107.492-47.847 149.828a354.414 354.414 0 0 0 5.113-4.3c30.094-27.48 59.965-59.496 75.82-97.489 3.223-8.207 5.856-17.375 7.98-25.922 3.548-13.84 5.126-28.07 6.731-42.214.688-7.735.828-15.641.711-23.407-.265-10.453-1.242-20.882-2.828-31.23a.568.568 0 0 1 1.117-.203c2.157 10.297 3.848 20.722 4.84 31.254.66 7.87 1.059 15.918.89 23.816-.128 2.652.114 5.328-.034 7.98-1.106 13.231-3.364 26.399-6.63 39.258-1.949 7.434-4.288 15.743-7.093 22.907-16.25 39.53-45.816 71.804-76.504 100.754a686.246 686.246 0 0 1-7.121 6.714c24.281-16.09 46.668-35.023 65.152-57.613 5.54-6.652 10.746-13.555 15.446-20.836 7.043-10.879 13.68-22.152 18.402-34.25 1.527-4.023 2.898-8.16 3.332-12.422a.45.45 0 0 1 .898.07c-.754 8.817-4.41 16.985-8.062 24.903-3.781 7.879-8.067 15.496-12.703 22.898-22.66 36.121-55.653 64.836-92.387 86.055-4.289 3.621-8.719 7.09-13.375 10.258-6.598 4.5-13.426 8.61-20.3 12.7-18.321 10.788-37.844 19.855-58.329 25.76a209.249 209.249 0 0 1-24.836 5.618c12.266-.953 24.555-2.61 36.301-5.348M473.859 194.32c-1.734 8.602-4.093 17.582-7.207 25.914.036.075.075.141.11.211-3.961 15.141-11.196 33.043-24.848 49.496-10.219 12.313-27.379 27.848-97.16 52.25-84.152 29.426-91.277 19.637-115.578 39.215-24.77 19.953-49.54 66.047-54.352 97.004-3.11 19.985-12.125 35.832-18.68 46.227-13.562-8.586-26.273-18.739-37.898-30.364-13.21-13.21-24.508-27.82-33.773-43.492-.758 3.07-1.504 6.14-2.266 9.196-.742 3.058-2.45 10.18-3.945 16.37a239.996 239.996 0 0 0 26.48 31.43c44.813 44.813 104.399 69.496 167.774 69.496 63.379 0 122.964-24.683 167.777-69.496C485.109 442.961 509.789 383.38 509.789 320c0-45.14-12.531-88.352-35.93-125.68"/><path d="M759.45 186.77c.85 0 1.698-1.278.636-2.344-6.606-7.028-13.844-15.547-20.66-27.051-1.492-2.555-2.985-1.703-2.985.426 0 10.648.43 18.746-.21 28.117 0 .426.21.852.851.852zm-105.864 8.093c-3.832.426-7.668 1.067-11.5 2.13-13.418 3.62-25.563 11.714-30.035 24.495-4.469 13.844 4.687 20.45 15.761 12.356 13.208-9.801 20.875-24.496 26.415-38.13.21-.425 0-.85-.641-.85m115.871 0h-33.016c-.636 0-1.062.425-1.062.85-2.984 30.247-13.207 56.02-34.508 77.317-3.406 3.836-8.73-1.277-5.75-5.324l.215-.21c19.168-19.173 26.625-47.712 27.687-71.782 0-.426-.425-.852-.851-.852h-52.61c-.425 0-1.066.426-1.066.852-7.668 18.105-17.25 37.273-34.078 48.137-4.473 2.77-10.227 5.539-17.254 4.898-7.453-.852-13.633-5.75-15.762-12.352-2.129-6.816-.851-12.992 1.067-18.32 5.96-16.187 21.722-25.77 37.488-29.605 5.11-1.278 10.434-1.918 16.613-2.13.426 0 .852-.425 1.063-.85 4.262-15.337 6.605-29.606 6.605-45.157 0-3.621-2.77-6.39-6.39-6.39h-37.274c-5.754 0-5.328-8.731.211-8.731h39.192c11.5 0 17.894 7.238 17.894 19.168 0 12.992-2.348 26.836-6.394 41.32-.211.426.214.852.64.852l50.266-.211c.43 0 .855-.215 1.066-.852 0-8.734.215-15.976 0-23.855 0 0 0-12.356-.21-21.086-.216-4.047 3.195-7.668 7.241-7.668 3.618 0 7.028 2.765 8.094 5.96 8.52 23.43 28.54 43.239 32.801 47.927 1.277.851 2.129 2.554 2.129 3.832.215 2.343-1.703 4.261-4.047 4.261m227.484 2.129c-7.882 15.977-27.902 20.024-44.09 20.024-13.632 0-24.706-2.985-31.949-5.54-4.047-1.703-7.668-3.62-11.5-5.113-4.05-2.129-.855-8.52 3.192-6.601h.215c3.62 1.492 6.816 2.984 10.437 4.047 6.813 1.918 17.254 3.836 29.39 2.984 11.716-.64 30.036-5.113 32.59-19.172 2.344-12.781-13.417-19.172-23.214-21.3-7.883-1.919-16.188-2.13-24.285-1.704-8.305.426-16.399 1.703-24.278 3.196-15.765 2.554-30.886 5.113-43.668 6.601-1.277.215-2.343.426-3.62.426-.427.215-.638.64-.638 1.066 6.817 29.18 13.204 58.574 20.02 87.754 2.129 8.735-11.5 11.715-13.418 3.195v-.21c-6.602-31.524-12.566-61.133-18.957-89.461-.211-.426-.637-.852-1.066-.852l-13.63 1.066s-7.667.426-11.929.637c-6.602 0-7.027-10.012-.426-10.222h.215c4.258.21 7.668.21 11.715.21 3.406 0 7.453-.21 12.14-.425.426 0 .852-.426.641-.852-.855-3.832-1.707-7.879-2.558-11.289 0 0-3.407-18.316-5.75-26.41-.852-3.832 1.277-7.453 4.898-8.52 1.703-.64 3.621-.214 5.324.641h.215c12.14 5.535 23.856 10.86 36.633 13.203 5.539 1.067 17.68 2.984 20.664-3.621.848-1.703.848-4.258.848-5.535-.211-1.067-.426-2.133-.426-3.195-1.489-7.883 11.078-9.801 12.144-1.918 1.914 12.566-5.113 22.363-18.957 23.43-5.539.425-10.652-.852-15.761-1.919-10.864-2.98-19.598-7.242-28.758-10.222-1.063-.426-2.34.425-2.13 1.703l2.77 13.844 3.407 18.957c0 .425.43.851 1.066.851 1.277-.21 2.77-.426 4.262-.426 12.777-1.277 27.476-3.832 43.449-6.39 7.883-1.278 16.187-2.766 24.71-3.621 8.731-1.063 17.677-1.914 26.837-.637 15.547 2.129 31.523 9.797 34.93 24.922 1.277 5.535.64 11.5-1.704 16.398m191.914 64.965c-19.382 1.277-38.128 2.77-57.082 1.277-20.664-1.277-48.992-7.242-56.445-29.82-7.883-22.789 9.586-44.09 26.41-56.016 17.04-12.992 36.211-21.726 55.38-30.886 1.706-.637 1.066-3.196-.852-3.407-23.004-.214-46.645-.64-65.391-14.91-4.898-3.836.64-11.074 5.75-7.668 23.004 15.762 55.379 10.649 81.582 9.586 7.668-.64 9.371 9.371 3.195 12.567-18.957 9.797-38.554 17.25-56.87 28.539-16.192 9.586-37.489 24.496-39.407 45.37-2.344 26.411 26.2 32.376 45.582 33.442 18.531 1.063 38.34-.215 57.297-1.707 9.16-.636 9.582 12.996.852 13.633M740.488 450.668c16.828.21 22.153-9.8 23.645-12.14 2.98-4.688 10.648-1.282 8.094 3.831-1.493 3.41-9.16 16.614-31.95 16.614 0 0-30.03-.211-31.523.215-12.781 3.62-21.086 21.3-21.086 33.226 0 16.402 10.648 27.477 27.05 30.031 8.731 1.282 9.157 13.848-.425 13.848-21.3 0-37.277-19.809-37.277-39.406 0-14.485 7.242-28.965 18.746-36.637.426-.426.426-1.062-.426-1.277l-86.906-.211c-4.899.21-5.535-8.094.215-8.309 0 0 35.57.64 40.043-.426 4.046-1.062 8.734-3.832 11.93-5.75 13.417-7.242 50.69-28.117 50.69-45.582 0-16.613-38.55-8.945-47.5-8.304-8.304.636-8.73-11.93-1.062-13.207 16.188-2.77 61.129-6.606 61.129 20.66 0 25.984-36.848 40.894-55.59 51.547-.64.636-.855 1.277.426 1.488zm173.598 21.722c-.426-.425-.852-.425-1.492-.425-25.985 5.539-50.055 18.32-68.371 35.574-1.493 1.063-.426 3.406 1.492 2.98 5.965-1.277 13.418-2.343 21.937-1.277 6.391.852 12.993 2.98 19.594 5.54 6.606 2.34 13.422 4.683 20.238 5.109 14.055.851 21.938-11.926 19.383-24.493-2.344-9.16-7.242-16.19-12.781-23.007m76.254 42.39-.215-.64c-2.129-10.012-7.027-18.106-13.633-24.707-8.515-7.883-17.039-12.141-25.984-15.336-7.668-2.344-14.91-3.621-21.512-3.621-.426-.215-.851.425-.426.851 8.52 10.649 15.336 24.281 11.926 37.914-3.621 15.121-19.383 21.938-34.078 19.594-8.52-1.277-15.336-4.898-21.727-7.668-6.386-2.555-11.5-4.898-17.89-5.96-13.844-1.708-27.903 1.702-38.98 6.6-2.766 1.063-5.75.426-7.454-1.277-2.554-2.558-2.77-6.816 0-9.37 24.922-21.727 54.953-39.407 86.477-45.372.426 0 .64-.637.215-1.066-10.653-10.649-16.403-16.184-19.813-23.64-6.812-14.911.43-27.903 15.977-33.653 1.492-.64 1.277-2.77-.211-3.407-8.735-4.05-15.551-10.015-21.09-17.683-3.192-4.258 2.984-8.73 6.39-5.324 9.797 10.652 26.415 17.68 41.11 14.484 8.945-2.34 12.566 12.14 3.195 14.059-8.308 1.918-16.613.851-25.347 3.406-13.633 4.047-18.106 14.058-12.356 24.496 6.18 11.289 18.106 17.68 26.414 25.988.426.422 1.067.637 1.488.637 10.012-.637 20.239-.426 29.825 1.703 11.714 2.77 22.789 7.457 31.52 14.91 9.16 7.242 17.468 17.465 20.237 28.543 3.622 9.16-10.863 14.485-14.058 5.54m190.422 15.972c-18.742 3.406-38.98 2.344-57.512 1.066-21.086-1.918-45.793-12.355-45.793-36.21 0-20.02 17.89-35.145 37.273-47.286.641-.215.852-.851.852-1.277V386.77c0-4.688-.637-9.586-6.387-9.586h-5.964c-5.54 0-5.54-8.094 0-8.094h5.964c11.926 0 18.743 7.027 18.743 18.742v51.332c0 .64.425.856.851.64 11.715-7.03 27.262-13.632 45.793-21.511 8.95-4.047 14.273 10.437 5.328 13.418-19.383 7.453-35.144 12.777-50.27 20.445-15.761 8.309-39.828 21.727-42.171 40.684-2.98 23.219 25.984 27.265 43.238 27.265 16.402.211 32.8-.855 49.203-3.835 9.582-1.067 10.649 13.421.852 14.484"/></svg>